grf
version=1
nRows=7
nColumns=37
inDegrees=no
endheader
time	ground_force_1_vx	ground_force_1_vy	ground_force_1_vz	ground_force_1_px	ground_force_1_py	ground_force_1_pz	ground_moment_1_mx	ground_moment_1_my	ground_moment_1_mz	ground_force_2_vx	ground_force_2_vy	ground_force_2_vz	ground_force_2_px	ground_force_2_py	ground_force_2_pz	ground_moment_2_mx	ground_moment_2_my	ground_moment_2_mz	ground_force_3_vx	ground_force_3_vy	ground_force_3_vz	ground_force_3_px	ground_force_3_py	ground_force_3_pz	ground_moment_3_mx	ground_moment_3_my	ground_moment_3_mz	ground_force_4_vx	ground_force_4_vy	ground_force_4_vz	ground_force_4_px	ground_force_4_py	ground_force_4_pz	ground_moment_4_mx	ground_moment_4_my	ground_moment_4_mz
      0.00000000	      0.00000000	     -0.00000000	      0.00000000	      0.00000000	      0.00000000	      0.00000000	      0.00000000	      0.00000000	      0.00000000	     -0.67050463	     17.15617752	   -339.58813477	   -296.76552479	  -1003.76050018	      0.00000000	     -0.00000000	      0.00000000	   1888.73898506	     -1.33066333	    -17.83044231	   -388.73074341	   -278.96693263	   -731.27532941	      0.00000000	      0.00000000	     -0.00000000	  -2430.21592638	      0.00000000	     -0.00000000	      0.00000000	      0.00000000	      0.00000000	      0.00000000	      0.00000000	      0.00000000	      0.00000000
      0.01000000	      0.00000000	     -0.00000000	      0.00000000	      0.00000000	      0.00000000	      0.00000000	      0.00000000	      0.00000000	      0.00000000	      0.02171206	     17.53699684	   -341.22418213	   -296.85679774	  -1004.89199224	      0.00000000	      0.00000000	      0.00000000	   2111.95025266	     -1.50808490	    -17.75265871	   -388.60577393	   -278.47642691	   -731.28665412	      0.00000000	      0.00000000	     -0.00000000	  -2391.12708298	      0.00000000	     -0.00000000	      0.00000000	      0.00000000	      0.00000000	      0.00000000	      0.00000000	      0.00000000	      0.00000000
      0.02000000	      0.00000000	     -0.00000000	      0.00000000	      0.00000000	      0.00000000	      0.00000000	      0.00000000	      0.00000000	      0.00000000	      0.20210388	     17.21307945	   -339.80233765	   -297.61444871	  -1003.27804142	      0.00000000	     -0.00000000	      0.00000000	   2284.01356708	     -1.59679570	    -17.93232141	   -388.46734619	   -278.66781919	   -731.69129010	      0.00000000	      0.00000000	     -0.00000000	  -2291.65688730	      0.00000000	     -0.00000000	      0.00000000	      0.00000000	      0.00000000	      0.00000000	      0.00000000	      0.00000000	      0.00000000
      0.03000000	      0.00000000	     -0.00000000	      0.00000000	      0.00000000	      0.00000000	      0.00000000	      0.00000000	      0.00000000	      0.00000000	     -0.24563360	     17.67101479	   -340.55255127	   -296.65790262	  -1005.77393504	      0.00000000	      0.00000000	      0.00000000	   2034.44365125	     -1.23116540	    -17.65359677	   -388.64822388	   -279.24737734	   -731.16090977	      0.00000000	     -0.00000000	     -0.00000000	  -2592.76820942	      0.00000000	     -0.00000000	      0.00000000	      0.00000000	      0.00000000	      0.00000000	      0.00000000	      0.00000000	      0.00000000
      0.04000000	      0.00000000	     -0.00000000	      0.00000000	      0.00000000	      0.00000000	      0.00000000	      0.00000000	      0.00000000	      0.00000000	     -0.58021563	     16.95688629	   -339.22793579	   -296.66150292	  -1003.20541065	      0.00000000	      0.00000000	      0.00000000	   1933.90612677	     -1.03008163	    -17.72916594	   -388.25659180	   -278.89829222	   -732.07254292	      0.00000000	      0.00000000	     -0.00000000	  -2444.40006265	      0.00000000	     -0.00000000	      0.00000000	      0.00000000	      0.00000000	      0.00000000	      0.00000000	      0.00000000	      0.00000000
      0.05000000	      0.00000000	     -0.00000000	      0.00000000	      0.00000000	      0.00000000	      0.00000000	      0.00000000	      0.00000000	      0.00000000	     -0.30102551	     17.06855202	   -339.05273438	   -296.48291605	  -1003.60365794	      0.00000000	     -0.00000000	      0.00000000	   2159.42651187	     -1.54220211	    -17.72004686	   -389.17514038	   -279.26390954	   -730.83291265	      0.00000000	      0.00000000	     -0.00000000	  -2394.16386633	      0.00000000	     -0.00000000	      0.00000000	      0.00000000	      0.00000000	      0.00000000	      0.00000000	      0.00000000	      0.00000000
      0.06000000	      0.00000000	     -0.00000000	      0.00000000	      0.00000000	      0.00000000	      0.00000000	      0.00000000	      0.00000000	      0.00000000	     -0.69126916	     17.59183311	   -339.93481445	   -296.27621873	  -1004.83650502	      0.00000000	      0.00000000	      0.00000000	   2074.56690066	     -1.69725599	    -17.96289238	   -390.00531006	   -279.21679767	   -730.92922970	      0.00000000	     -0.00000000	     -0.00000000	  -2344.64502878	      0.00000000	     -0.00000000	      0.00000000	      0.00000000	      0.00000000	      0.00000000	      0.00000000	      0.00000000	      0.00000000
